<?xml version="1.0" encoding="utf-8" standalone="no"?>
<!DOCTYPE svg PUBLIC "-//W3C//DTD SVG 1.1//EN"
  "http://www.w3.org/Graphics/SVG/1.1/DTD/svg11.dtd">
<svg xmlns:xlink="http://www.w3.org/1999/xlink" width="404.115475pt" height="620.304pt" viewBox="0 0 404.115475 620.304" xmlns="http://www.w3.org/2000/svg" version="1.1">
 <metadata>
  <rdf:RDF xmlns:dc="http://purl.org/dc/elements/1.1/" xmlns:cc="http://creativecommons.org/ns#" xmlns:rdf="http://www.w3.org/1999/02/22-rdf-syntax-ns#">
   <cc:Work>
    <dc:type rdf:resource="http://purl.org/dc/dcmitype/StillImage"/>
    <dc:date>2026-08-14T08:48:23.135583</dc:date>
    <dc:format>image/svg+xml</dc:format>
    <dc:creator>
     <cc:Agent>
      <dc:title>Matplotlib v3.11.1, https://matplotlib.org/</dc:title>
     </cc:Agent>
    </dc:creator>
   </cc:Work>
  </rdf:RDF>
 </metadata>
 <defs>
  <style type="text/css">*{stroke-linejoin: round; stroke-linecap: butt}</style>
 </defs>
 <g id="figure_1">
  <g id="patch_1">
   <path d="M 0 620.304
L 404.115475 620.304
L 404.115475 0
L 0 0
z
" style="fill: #ffffff"/>
  </g>
  <g id="axes_1">
   <g id="PatchCollection_1">
    <defs>
     <path id="m1d2d826a52" d="M 31.459794 -447.604958
L 31.799338 -448.722967
L 32.410398 -450.746624
L 33.497057 -454.366847
L 33.700546 -454.952471
L 36.944549 -462.722935
L 38.880067 -463.035859
L 41.359801 -465.212133
L 59.586318 -468.878495
L 60.664103 -470.847139
L 65.09296 -475.681792
L 68.975234 -478.226004
L 78.319193 -479.471786
L 86.675873 -483.119811
L 87.165668 -487.221546
L 95.483306 -495.613127
L 99.887909 -496.130132
L 100.627925 -497.246959
L 100.576461 -499.965083
L 101.452532 -501.561057
L 102.463473 -503.369985
L 102.463473 -503.423224
L 104.267668 -504.002932
L 105.809221 -505.329756
L 107.215902 -506.443625
L 108.489486 -507.558677
L 109.561356 -508.407536
L 111.370876 -509.893483
L 112.844992 -511.11383
L 114.051733 -512.175643
L 114.3197 -512.387414
L 114.454571 -512.653607
L 115.869534 -515.153453
L 117.21647 -517.493584
L 118.82664 -519.087192
L 120.033973 -520.308721
L 120.43622 -520.680208
L 121.840535 -521.314338
L 123.847037 -522.319955
L 124.911808 -521.889906
L 127.043125 -521.402477
L 127.645312 -521.719543
L 129.050219 -522.407503
L 130.117356 -522.457192
L 131.118833 -522.56012
L 132.918888 -522.446545
L 133.443583 -520.899077
L 133.770705 -519.83194
L 134.033348 -519.084825
L 134.099601 -518.977757
L 134.098418 -518.818041
L 134.164079 -518.657734
L 134.36047 -518.017688
L 134.557452 -517.377051
L 134.688774 -517.110266
L 134.755618 -517.057028
L 135.088063 -516.948776
L 135.154907 -516.948776
L 135.620449 -516.680217
L 136.951413 -516.142508
L 137.150762 -516.088677
L 139.15194 -516.134818
L 141.763587 -517.937239
L 142.902893 -518.839336
L 143.237704 -519.104346
L 143.438828 -519.26347
L 143.505672 -519.316709
L 143.907918 -519.634957
L 144.310165 -520.059683
L 144.576358 -519.898784
L 144.841959 -519.737885
L 145.174996 -519.576986
L 145.440597 -519.416088
L 145.773043 -519.255189
L 146.039236 -519.09429
L 146.371681 -518.9328
L 146.57103 -518.772492
L 146.637282 -518.771901
L 146.978009 -519.996388
L 149.703232 -529.900535
L 152.702337 -541.081816
L 152.975629 -542.200417
L 153.641702 -542.091574
L 153.708546 -542.090983
L 159.051332 -543.243893
L 159.318707 -543.295949
L 159.852276 -543.347413
L 160.386436 -543.452115
L 160.920597 -543.503579
L 161.521009 -543.554451
L 161.787794 -543.55386
L 163.655876 -543.6
L 163.989504 -543.598817
L 164.589917 -543.596451
L 165.189738 -543.540846
L 165.789559 -543.485241
L 166.456224 -543.429637
L 167.056045 -543.374032
L 167.322829 -543.320202
L 167.655866 -543.265189
L 168.055747 -543.157528
L 168.32194 -543.103107
L 168.921761 -543.047502
L 169.522174 -542.991897
L 170.121995 -542.936293
L 170.789251 -542.933926
L 171.389072 -542.93156
L 171.989485 -542.929786
L 172.590489 -542.980658
L 172.857274 -543.032714
L 177.128781 -543.496481
L 177.395565 -543.495889
L 178.062822 -543.546761
L 178.730079 -543.543804
L 179.396744 -543.541438
L 179.997156 -543.485833
L 180.330193 -543.431411
L 181.063111 -543.321976
L 182.396441 -543.157528
L 184.329001 -542.883646
L 184.662037 -542.829224
L 185.261859 -542.720381
L 185.928524 -542.610946
L 186.527162 -542.395625
L 187.193235 -542.233544
L 187.792465 -542.017632
L 188.058066 -541.856733
L 189.588379 -541.211363
L 189.987668 -541.050464
L 190.786247 -540.674245
L 191.51739 -540.244788
L 192.248533 -539.815921
L 192.979084 -539.333225
L 193.311529 -539.119088
L 194.905728 -537.940741
L 195.63628 -537.404806
L 204.73475 -530.761225
L 204.934099 -530.600918
L 205.266544 -530.386189
L 205.531554 -530.172052
L 205.86459 -530.011153
L 205.997095 -529.904084
L 206.196444 -529.796424
L 206.462637 -529.635525
L 206.861926 -529.474626
L 207.194371 -529.366375
L 207.526817 -529.205476
L 207.859853 -529.097224
L 208.259734 -528.989564
L 208.592179 -528.881312
L 208.99206 -528.826891
L 209.391941 -528.718639
L 210.32539 -528.71509
L 210.725271 -528.660076
L 210.722905 -528.234168
L 210.856001 -528.233576
L 211.18963 -528.232393
L 211.522667 -528.17738
L 211.922547 -528.122959
L 212.18874 -528.015298
L 212.521777 -527.907047
L 212.854814 -527.799386
L 213.120415 -527.638488
L 213.386016 -527.42435
L 213.651617 -527.210213
L 217.837351 -524.476117
L 218.0367 -524.315218
L 218.235458 -524.154911
L 218.434806 -523.994012
L 218.634155 -523.833705
L 218.832913 -523.619568
L 218.965417 -523.459261
L 219.164175 -523.245123
L 219.296088 -523.031577
L 219.896501 -523.029211
L 221.162987 -522.918002
L 221.093777 -522.758286
L 223.009182 -519.606563
L 227.632064 -511.860353
L 228.754806 -509.937257
L 229.349303 -508.976006
L 230.551312 -508.918035
L 235.016844 -508.421141
L 238.147271 -507.769856
L 240.280363 -507.548621
L 243.281243 -507.430313
L 247.073603 -505.870423
L 249.464606 -504.208788
L 249.597703 -504.154958
L 250.593855 -503.511363
L 251.258154 -502.97602
L 254.457792 -502.750643
L 259.125631 -502.625828
L 261.193062 -502.5649
L 264.789031 -501.645056
L 268.250129 -500.459019
L 272.577241 -499.109717
L 275.381138 -499.632046
L 277.916477 -499.782297
L 280.112272 -498.867777
L 286.356564 -494.792661
L 291.126739 -492.675541
L 293.126143 -492.023073
L 296.950446 -491.578235
L 301.32074 -491.298437
L 305.289379 -491.044075
L 305.54315 -491.036976
L 310.978215 -490.881401
L 313.656115 -491.235142
L 321.083486 -491.459336
L 319.465034 -488.587411
L 317.783287 -486.195817
L 316.979384 -485.612558
L 315.773827 -484.817529
L 312.104507 -484.565533
L 309.766151 -483.934952
L 308.290851 -482.55489
L 307.0149 -481.174237
L 306.075535 -480.218309
L 305.203015 -479.31562
L 303.930613 -478.414705
L 302.858743 -477.619676
L 301.453837 -476.985545
L 298.982384 -476.355556
L 298.229354 -473.373605
L 297.352693 -471.831461
L 293.064031 -468.436615
L 290.500298 -463.5434
L 291.087106 -461.355887
L 289.317219 -455.499645
L 288.318109 -455.663501
L 286.300959 -452.953067
L 281.140368 -448.708771
L 277.116124 -444.940072
L 272.81918 -440.106602
L 273.219653 -440.104827
L 270.868283 -437.289099
L 267.921824 -435.221668
L 267.92774 -436.234384
L 266.726323 -436.026162
L 266.657704 -435.706731
L 266.915615 -433.9469
L 267.110232 -433.093309
L 266.57548 -432.882129
L 265.639665 -432.512417
L 264.702074 -431.823273
L 264.433515 -431.557672
L 264.025945 -430.279947
L 264.090422 -429.959924
L 264.485571 -429.052502
L 264.482022 -428.466286
L 264.48143 -428.413048
L 264.546499 -428.146263
L 264.805594 -426.866172
L 265.200151 -425.958158
L 265.330881 -425.531658
L 265.392401 -424.624828
L 265.322008 -423.985965
L 265.253981 -423.773011
L 265.653862 -423.771237
L 266.054334 -423.876531
L 267.860896 -424.882148
L 268.66184 -424.932429
L 270.062606 -425.086821
L 271.330275 -425.135327
L 271.929505 -425.026484
L 272.52696 -424.597617
L 273.585224 -423.101022
L 273.914712 -422.513623
L 274.045442 -422.033293
L 273.909979 -421.713862
L 273.64142 -421.341784
L 273.573393 -421.129421
L 273.63728 -420.649091
L 273.703532 -420.595852
L 273.902881 -420.488192
L 273.902289 -420.434953
L 274.501519 -420.272872
L 274.834556 -420.16462
L 275.100749 -420.11079
L 275.899327 -419.841048
L 276.36546 -419.732796
L 276.765341 -419.677783
L 276.897846 -419.517476
L 281.279379 -416.355697
L 281.666246 -414.168775
L 282.723328 -412.565702
L 284.125868 -412.880401
L 285.528408 -413.247748
L 287.198324 -413.720979
L 288.124084 -412.49176
L 288.655286 -412.062894
L 288.920888 -411.901995
L 290.38554 -411.470171
L 290.451792 -411.470171
L 292.116384 -411.037164
L 293.315435 -410.819478
L 293.581628 -410.765056
L 293.914665 -410.710043
L 295.183517 -411.025333
L 295.317205 -411.024742
L 296.519214 -411.340032
L 297.983274 -410.854378
L 298.18144 -410.533764
L 298.974103 -409.304545
L 300.838044 -408.817708
L 303.101866 -408.222619
L 304.233481 -407.951694
L 305.025553 -406.615997
L 304.61739 -405.285625
L 304.749304 -405.071488
L 305.476897 -404.056406
L 305.537826 -403.149575
L 306.997154 -401.91799
L 308.257725 -400.847303
L 308.053644 -400.208441
L 307.373373 -397.972421
L 306.769411 -397.335333
L 306.701976 -397.282094
L 305.428983 -396.274703
L 305.423067 -395.315225
L 306.948056 -393.870094
L 307.545511 -393.441228
L 308.010461 -393.120022
L 307.938885 -392.320852
L 307.935927 -391.894352
L 309.399988 -391.408698
L 309.999217 -391.193378
L 311.32959 -390.761554
L 312.528641 -390.490629
L 314.192641 -390.004383
L 315.191752 -389.893765
L 315.991513 -389.837569
L 316.32455 -389.782556
L 317.191156 -389.672529
L 317.921707 -389.243663
L 318.652258 -388.760967
L 319.848351 -388.063542
L 319.980856 -388.009712
L 320.645155 -387.580254
L 321.299989 -385.605695
L 323.028468 -384.746188
L 323.427166 -384.584697
L 324.158309 -384.20907
L 324.691877 -384.206704
L 326.15298 -383.241903
L 326.351146 -382.921288
L 327.473296 -381.157909
L 327.93588 -380.409611
L 328.133455 -380.088997
L 328.265959 -379.875451
L 328.462351 -379.341882
L 328.72736 -379.073915
L 330.519725 -377.787908
L 331.591003 -378.47646
L 331.722917 -378.262914
L 331.856605 -378.315561
L 332.591297 -378.472911
L 332.459975 -378.846172
L 333.929359 -379.213518
L 334.129891 -379.319404
L 334.863992 -379.422923
L 336.399037 -379.629962
L 338.1985 -379.569625
L 340.064808 -379.456049
L 340.398436 -379.454275
L 341.663148 -379.076281
L 343.192278 -378.430911
L 344.190205 -378.053509
L 344.921939 -377.784358
L 345.986711 -377.460195
L 347.519981 -377.401041
L 348.386587 -377.344253
L 349.320036 -377.393942
L 350.255852 -377.763063
L 351.52707 -378.397785
L 352.19551 -378.71485
L 352.262354 -378.71485
L 353.458447 -378.070072
L 353.856553 -377.802105
L 354.585921 -377.106454
L 354.916592 -376.678771
L 355.24608 -376.091372
L 355.511089 -375.770166
L 356.038743 -374.862153
L 356.836138 -374.379457
L 358.164736 -373.62761
L 359.293985 -372.983423
L 359.892623 -372.714864
L 361.022463 -372.123916
L 361.42057 -371.855949
L 366.797073 -367.943506
L 366.663385 -367.890859
L 367.459006 -367.194617
L 368.055869 -366.659274
L 369.982513 -365.585629
L 371.444799 -364.833783
L 371.774878 -364.245792
L 371.705077 -363.819884
L 371.634683 -363.233668
L 371.493306 -361.955351
L 371.073312 -358.759263
L 370.933709 -357.693308
L 370.595348 -356.895321
L 371.047285 -354.601923
L 371.110579 -354.015115
L 371.827525 -351.347272
L 372.280053 -349.107111
L 372.468754 -347.347281
L 372.655681 -345.214781
L 372.653315 -344.84152
L 372.641484 -342.976395
L 372.430896 -341.271578
L 371.935777 -336.689513
L 371.865384 -336.157127
L 371.796765 -335.783866
L 368.460482 -335.370971
L 368.652141 -334.037641
L 368.642085 -332.385471
L 368.64031 -332.119278
L 368.639127 -331.958971
L 368.704788 -331.745425
L 369.428241 -330.250604
L 370.278283 -327.582169
L 371.911524 -322.138822
L 371.628177 -319.475119
L 371.544769 -316.863472
L 368.657465 -313.570963
L 367.645932 -311.709388
L 367.241911 -311.017878
L 367.173884 -310.804924
L 366.971577 -310.486084
L 366.565781 -309.58162
L 365.227718 -308.733944
L 364.491252 -308.310401
L 363.952951 -307.513598
L 363.146682 -306.450601
L 363.209385 -305.810555
L 360.342785 -305.875625
L 358.607207 -305.456223
L 349.515244 -301.334967
L 348.777594 -300.697879
L 345.897388 -298.470732
L 344.289584 -297.197739
L 342.26711 -293.528419
L 340.648657 -290.603256
L 340.635052 -288.36487
L 340.695981 -287.458631
L 338.709591 -278.884857
L 338.691845 -275.953778
L 341.000032 -271.947281
L 341.066876 -271.946689
L 341.066284 -271.840212
L 341.128988 -271.253405
L 341.784413 -269.385323
L 342.637413 -267.250456
L 343.818126 -264.154338
L 343.683255 -263.888145
L 343.145546 -263.143989
L 341.589797 -259.526133
L 338.304386 -256.447761
L 335.43187 -255.393046
L 334.484815 -253.211448
L 334.147637 -252.573176
L 334.992948 -249.10498
L 329.50346 -245.28955
L 324.742158 -240.61757
L 323.324829 -237.691815
L 321.163935 -233.223325
L 321.097091 -233.116848
L 318.399671 -228.063917
L 316.646939 -224.819323
L 317.908693 -224.121306
L 317.764357 -222.310012
L 315.614111 -219.440453
L 316.338155 -217.99828
L 314.931474 -216.777934
L 313.992701 -215.929074
L 314.513256 -213.848038
L 312.54757 -208.472718
L 311.646655 -202.826473
L 311.299421 -200.58927
L 313.133194 -195.305047
L 312.523317 -193.602005
L 312.448191 -192.269858
L 312.376023 -191.31038
L 312.307405 -190.990949
L 314.428666 -189.170782
L 314.694267 -188.956644
L 315.158034 -188.475131
L 315.953655 -187.832128
L 318.93738 -185.315127
L 319.725903 -183.447045
L 320.436933 -179.926201
L 323.491644 -178.101893
L 324.61971 -177.244752
L 324.268335 -174.314857
L 324.594273 -173.140651
L 324.984098 -171.540536
L 325.644848 -170.578101
L 325.909266 -170.257487
L 326.098558 -168.444418
L 325.223671 -167.115229
L 325.003619 -163.86531
L 328.060695 -162.467502
L 327.385749 -161.030653
L 326.979361 -159.966473
L 327.10181 -158.207234
L 328.025794 -156.764469
L 329.621768 -156.171746
L 336.203238 -153.534072
L 336.53095 -152.679888
L 337.119532 -150.865636
L 338.169515 -148.249848
L 339.825826 -146.64441
L 342.143478 -144.236252
L 341.602219 -142.95971
L 341.588614 -140.720733
L 342.093197 -136.135118
L 341.685626 -134.857392
L 335.002412 -131.739387
L 330.052409 -128.720761
L 329.851286 -128.561637
L 329.650754 -128.455751
L 331.042055 -127.06445
L 332.704872 -126.631443
L 336.031691 -125.712191
L 337.147335 -122.989926
L 339.068655 -121.169758
L 345.603984 -111.123642
L 345.381566 -107.5537
L 345.572041 -105.953586
L 347.229535 -104.61434
L 347.295196 -104.454624
L 347.756005 -103.546611
L 346.679995 -102.005059
L 347.121875 -98.00566
L 347.1201 -97.686229
L 348.047043 -96.776441
L 349.368542 -94.95864
L 349.95535 -92.877603
L 351.082824 -91.967224
L 351.271525 -90.207394
L 352.929019 -88.86874
L 352.766937 -84.232253
L 352.071878 -79.544301
L 353.791484 -77.512363
L 353.521742 -76.980569
L 352.580011 -75.598141
L 351.973683 -74.481314
L 351.43479 -73.524203
L 350.692999 -72.141184
L 350.55872 -71.928821
L 350.005039 -68.679494
L 349.938195 -68.573017
L 349.661946 -67.028507
L 349.524709 -66.389644
L 349.111814 -64.258919
L 348.902409 -63.523635
L 348.839114 -63.300625
L 348.769904 -62.874716
L 348.292532 -61.117844
L 348.021015 -60.319265
L 348.021015 -60.266027
L 348.75275 -60.050115
L 349.284544 -59.888033
L 350.282471 -59.617699
L 350.413793 -59.350323
L 350.480045 -59.243846
L 350.808941 -58.602617
L 351.269159 -57.588127
L 351.66549 -57.000137
L 352.060047 -56.145953
L 352.455196 -55.451486
L 352.918963 -55.023211
L 353.647148 -54.274322
L 354.111507 -53.899286
L 354.309081 -53.578672
L 354.565809 -51.978557
L 354.889381 -50.431681
L 355.017154 -49.524851
L 354.015086 -49.15573
L 353.614022 -48.943959
L 352.078385 -48.36425
L 351.011248 -48.208084
L 350.076615 -47.94544
L 349.010661 -47.949581
L 348.61078 -47.898117
L 348.476501 -47.792232
L 348.343404 -47.738993
L 348.209125 -47.579869
L 348.142281 -47.579869
L 348.075437 -47.527222
L 347.874313 -47.314859
L 346.004457 -46.682503
L 344.871658 -46.633406
L 344.605466 -46.634589
L 344.161811 -46.691376
L 343.739452 -46.744615
L 343.405823 -46.639321
L 342.674089 -46.802586
L 342.607245 -46.749347
L 342.136379 -46.058429
L 341.736499 -46.006374
L 341.535967 -45.900488
L 341.068059 -45.63607
L 340.798908 -45.210753
L 340.459365 -44.252459
L 340.458773 -44.092743
L 340.455816 -43.666243
L 340.521476 -43.505936
L 340.850372 -42.81206
L 340.516153 -42.653527
L 340.315621 -42.547642
L 338.643338 -41.434956
L 338.243458 -41.383492
L 337.709297 -41.225551
L 336.37715 -41.337352
L 335.911017 -41.339126
L 335.37804 -41.341493
L 334.645122 -41.343859
L 334.178989 -41.346225
L 333.458494 -41.326704
L 332.44637 -41.299493
L 332.179585 -41.300676
L 331.779705 -41.301859
L 331.375091 -40.504464
L 331.173376 -40.185033
L 330.903634 -39.6
L 330.438684 -39.868559
L 329.114227 -41.20603
L 326.720858 -42.014665
L 323.806343 -44.851097
L 322.011612 -45.49765
L 321.412973 -45.660323
L 320.813744 -45.715928
L 320.214514 -45.771532
L 316.685389 -46.105161
L 314.75697 -46.752305
L 313.825887 -47.075877
L 313.094744 -47.345028
L 312.76289 -47.506518
L 312.230505 -47.668008
L 308.054827 -51.255696
L 307.85607 -51.416595
L 307.657312 -51.576902
L 307.59106 -51.68397
L 307.460921 -52.164301
L 307.201235 -53.230846
L 307.136757 -53.604699
L 305.812892 -55.048648
L 305.749006 -55.528386
L 305.62005 -56.169024
L 305.356223 -56.649354
L 304.827978 -57.45089
L 303.706419 -59.267508
L 302.054841 -61.565639
L 301.791014 -61.993322
L 301.666791 -63.539607
L 300.942155 -64.874711
L 299.01906 -66.428094
L 296.02587 -67.185857
L 294.032973 -68.206262
L 291.508873 -69.495227
L 290.180275 -70.193244
L 288.193294 -72.119888
L 288.127042 -72.226957
L 287.796962 -72.761117
L 287.268718 -73.562653
L 283.14687 -75.017841
L 282.880677 -75.125501
L 281.015553 -75.239076
L 280.481984 -75.134374
L 279.614787 -74.978207
L 278.814434 -74.821449
L 278.013489 -74.610861
L 277.746705 -74.505567
L 276.344756 -74.13763
L 275.410715 -73.874986
L 275.078862 -74.089123
L 274.282058 -74.572411
L 273.685194 -75.000686
L 273.685194 -75.053924
L 272.159022 -76.072556
L 271.494132 -76.341706
L 270.829241 -76.610857
L 269.592332 -77.40352
L 268.904372 -77.844217
L 268.703248 -77.578615
L 268.435281 -77.313014
L 268.233566 -77.047413
L 268.031851 -76.781812
L 267.495324 -76.19737
L 265.308402 -77.698106
L 264.70799 -78.073734
L 262.913259 -78.773525
L 260.520481 -79.795114
L 259.128588 -81.0267
L 258.333559 -81.72235
L 252.014734 -83.665558
L 251.349252 -83.827639
L 249.823079 -84.846271
L 249.358721 -85.168068
L 247.767479 -86.559961
L 244.84764 -88.59604
L 243.988133 -89.665544
L 243.530873 -91.26625
L 243.736729 -92.225135
L 243.80653 -92.757521
L 243.875149 -93.076952
L 244.012978 -93.822884
L 244.012978 -93.876122
L 243.814812 -94.143498
L 243.351636 -94.67825
L 243.219723 -94.891796
L 241.757437 -95.537165
L 241.026294 -95.859554
L 240.02955 -96.289604
L 237.703617 -97.365023
L 236.040207 -97.797438
L 235.441569 -97.95952
L 235.308473 -97.960111
L 234.509303 -98.016308
L 232.576743 -98.077236
L 230.917475 -99.149698
L 230.851222 -99.256175
L 229.665777 -101.552531
L 229.006802 -102.834398
L 229.000886 -102.884087
L 228.815734 -104.327443
L 228.687962 -105.234274
L 228.62585 -106.034035
L 228.369714 -107.740035
L 227.840286 -108.328617
L 225.78646 -110.414977
L 224.130741 -112.073654
L 222.279814 -114.585923
L 221.164762 -117.628211
L 220.782036 -120.507825
L 220.657812 -122.107348
L 219.878755 -125.521123
L 220.756599 -127.543597
L 220.577363 -130.955006
L 220.57618 -130.966837
L 220.389253 -133.034859
L 220.328325 -133.941098
L 221.603684 -135.535297
L 222.278631 -136.971555
L 222.891466 -139.208166
L 219.561098 -138.424376
L 219.22747 -138.319082
L 219.027529 -138.319674
L 218.227768 -138.269393
L 216.96069 -138.167648
L 216.492782 -137.956468
L 216.425938 -137.90323
L 216.0231 -137.372027
L 215.755724 -137.212903
L 214.753656 -136.790544
L 214.149694 -136.152864
L 213.882909 -136.04757
L 212.748928 -135.891995
L 212.081671 -135.787884
L 210.946507 -135.365525
L 210.546035 -135.260231
L 210.27925 -135.261414
L 209.54515 -135.050826
L 209.411462 -134.998179
L 209.011581 -134.999954
L 208.879076 -135.053784
L 208.612883 -135.107614
L 208.546039 -135.108205
L 208.14675 -135.162627
L 207.813122 -135.164402
L 207.547521 -135.27147
L 207.215075 -135.379722
L 206.815195 -135.380905
L 206.681507 -135.328258
L 206.01425 -135.224147
L 204.88086 -135.121811
L 204.480388 -135.016517
L 204.013072 -134.858576
L 203.414434 -135.020657
L 203.013961 -134.969193
L 202.680333 -134.917138
L 201.61497 -135.080994
L 199.486019 -135.621662
L 198.553753 -135.731688
L 198.420065 -135.73228
L 197.754583 -135.894953
L 196.956596 -136.164103
L 196.757247 -136.271764
L 196.624742 -136.325594
L 196.425393 -136.485901
L 196.292297 -136.486492
L 195.693659 -136.701813
L 195.028177 -136.811248
L 194.428947 -136.97333
L 193.430429 -137.136594
L 192.964295 -137.138369
L 191.897158 -137.036033
L 191.296154 -136.824853
L 190.227833 -136.509563
L 189.360636 -136.299566
L 188.627127 -136.195455
L 187.893027 -136.091344
L 187.75993 -136.091936
L 187.092082 -135.881347
L 186.559696 -135.936952
L 185.959284 -135.83225
L 185.759343 -135.832841
L 185.225775 -135.781969
L 184.692798 -135.836982
L 184.094159 -135.999064
L 183.894811 -136.053486
L 183.428677 -136.161737
L 182.829448 -136.270581
L 181.76586 -136.753868
L 181.167222 -136.862712
L 178.906357 -137.723993
L 178.375155 -138.045791
L 177.843361 -138.261111
L 177.177879 -138.476432
L 177.111035 -138.477023
L 176.246204 -138.640288
L 175.780071 -138.74854
L 175.180841 -138.804145
L 174.980901 -138.857975
L 173.315125 -138.91772
L 172.249171 -138.974508
L 171.84929 -138.923044
L 171.782446 -138.923044
L 171.124063 -140.258149
L 170.796941 -141.325286
L 170.468045 -142.019754
L 170.537847 -142.658616
L 170.604691 -142.658616
L 170.53903 -142.818924
L 170.145656 -143.886061
L 169.95104 -144.899368
L 169.621552 -145.486767
L 169.49378 -146.446836
L 169.431668 -147.246597
L 168.501176 -147.623408
L 168.503542 -148.049908
L 168.505909 -148.422578
L 168.5065 -148.582294
L 168.444388 -149.328817
L 168.381685 -150.022101
L 168.250955 -150.449193
L 167.720344 -150.877467
L 167.457109 -151.464866
L 167.859356 -151.94283
L 167.794286 -152.209614
L 167.464207 -152.743775
L 167.467165 -153.223513
L 167.602036 -153.489706
L 167.736316 -153.702069
L 167.873553 -154.341523
L 167.807892 -154.501239
L 167.742231 -154.661546
L 167.610318 -154.92833
L 167.544657 -155.141876
L 167.619782 -156.527262
L 167.425166 -157.487922
L 167.230549 -158.447991
L 167.235873 -159.300399
L 167.440546 -160.099569
L 167.50739 -160.205455
L 167.909637 -160.576942
L 167.910228 -160.68401
L 168.247997 -161.428759
L 168.382277 -161.641713
L 168.852551 -162.279393
L 168.98683 -162.438517
L 169.322233 -162.810595
L 169.992448 -163.500922
L 171.063726 -164.349781
L 171.131161 -164.456258
L 171.466564 -164.827745
L 171.735123 -165.146585
L 172.069343 -165.358948
L 173.003976 -165.675421
L 174.074662 -166.363973
L 174.276377 -166.736643
L 174.680399 -167.427562
L 175.416865 -168.011411
L 175.61858 -168.277012
L 176.356822 -169.233532
L 176.896897 -170.35095
L 177.10157 -171.149529
L 177.10157 -171.203359
L 177.907839 -172.266355
L 178.511801 -173.063159
L 179.452348 -174.285871
L 179.519192 -174.33911
L 179.587219 -174.551473
L 179.788934 -174.870904
L 180.058677 -175.455937
L 180.863762 -176.359218
L 183.007501 -178.216652
L 183.476592 -178.641377
L 184.481618 -179.596714
L 184.750177 -179.915554
L 186.548457 -179.749331
L 186.81465 -179.694909
L 187.081434 -179.693726
L 191.545192 -179.41097
L 187.90959 -184.540801
L 186.524204 -186.998057
L 185.534558 -188.707015
L 184.743078 -190.149188
L 183.885346 -191.645192
L 182.767928 -194.314218
L 181.71617 -196.876176
L 181.261276 -198.796905
L 180.868494 -200.077588
L 180.478078 -201.731533
L 180.417741 -202.797487
L 180.292335 -204.076987
L 180.169886 -205.943295
L 179.981185 -207.916079
L 179.66412 -210.741864
L 177.817925 -214.106541
L 175.236446 -217.207983
L 174.973802 -217.955097
L 174.646089 -218.915758
L 174.450881 -219.662281
L 175.073181 -223.551062
L 175.694889 -227.279536
L 175.459456 -232.663729
L 174.813495 -236.23722
L 173.699626 -239.492462
L 175.989476 -243.588282
L 177.079092 -248.590932
L 178.478674 -248.585608
L 178.480449 -248.852393
L 183.168992 -252.725794
L 187.394359 -257.240424
L 190.488702 -261.97274
L 194.977305 -265.846733
L 198.533641 -269.830752
L 200.272767 -270.783722
L 200.278091 -271.689961
L 201.948598 -272.429385
L 204.555513 -273.592352
L 208.514096 -277.947858
L 213.00329 -281.875681
L 213.098528 -286.671884
L 213.099119 -286.778361
L 212.716393 -289.765044
L 212.524735 -291.097783
L 212.073981 -293.818273
L 211.817253 -295.471035
L 212.644226 -300.051917
L 212.852447 -301.48995
L 212.797434 -303.462735
L 212.743013 -305.488166
L 213.219202 -307.1918
L 213.83322 -309.534888
L 215.183705 -312.407996
L 216.879057 -317.304761
L 217.430964 -320.394372
L 215.927862 -325.569752
L 215.352294 -329.729458
L 216.509345 -333.72235
L 216.08462 -339.750138
L 214.498111 -343.110675
L 214.256171 -347.322436
L 214.346676 -351.372708
L 214.902132 -355.048535
L 214.327156 -359.314718
L 211.614947 -362.949137
L 207.569408 -366.58888
L 206.113629 -368.513159
L 204.856016 -370.063584
L 204.128422 -371.078666
L 205.273642 -373.099957
L 207.226906 -376.397198
L 210.834706 -377.663093
L 213.513789 -379.624638
L 213.80246 -383.354887
L 210.604597 -382.784051
L 207.256483 -381.460777
L 203.849215 -380.300768
L 200.908672 -379.085746
L 198.163928 -377.230677
L 196.898034 -376.385959
L 194.955418 -374.794126
L 194.219542 -374.423822
L 193.353528 -374.48061
L 192.486331 -374.483568
L 191.617951 -374.220333
L 190.682136 -373.744143
L 189.209794 -372.790581
L 187.735086 -371.463167
L 186.86079 -370.241046
L 186.453811 -369.069797
L 186.24618 -367.738242
L 186.240857 -366.778765
L 186.168097 -365.819287
L 185.826779 -364.381846
L 185.493742 -364.489507
L 185.095044 -364.650997
L 184.629503 -364.919556
L 184.363902 -365.079863
L 184.035006 -365.880808
L 182.77266 -366.632063
L 183.443466 -367.268559
L 181.85814 -369.832883
L 180.130253 -370.798868
L 178.922921 -370.693574
L 178.126117 -371.229508
L 177.262469 -371.819273
L 174.666202 -372.468192
L 173.536361 -373.165617
L 169.269586 -373.180997
L 168.469233 -373.183955
L 167.205705 -373.721665
L 165.207484 -374.048786
L 163.344726 -374.801816
L 161.211043 -374.756859
L 158.410103 -374.713677
L 156.212533 -375.201697
L 152.811181 -375.054403
L 151.276135 -374.793534
L 150.873888 -374.368217
L 150.068212 -373.465528
L 148.867978 -373.41643
L 146.403624 -372.789398
L 145.667749 -372.365264
L 145.333529 -372.206732
L 144.794636 -371.302859
L 145.245389 -368.476483
L 144.510697 -368.212657
L 144.036874 -367.041408
L 143.033031 -366.405503
L 143.287393 -364.273003
L 142.34093 -361.984336
L 142.13744 -361.398712
L 141.867698 -360.866918
L 141.065571 -360.443376
L 137.991931 -360.451066
L 134.51427 -358.545125
L 127.851168 -359.262663
L 127.111744 -358.199075
L 125.438278 -357.085797
L 124.500688 -356.343415
L 124.562208 -355.490415
L 121.947603 -351.878474
L 115.819253 -352.807191
L 113.214704 -352.070133
L 112.616066 -352.285454
L 111.741179 -352.019261
L 103.627031 -355.459655
L 101.169776 -357.173937
L 100.107371 -357.924009
L 98.907728 -358.035218
L 97.45609 -360.705428
L 96.927845 -361.66668
L 96.129858 -361.989069
L 95.198184 -362.365879
L 91.268586 -361.956534
L 87.059191 -361.488626
L 84.199688 -362.88466
L 80.397272 -362.525595
L 79.997391 -362.47354
L 79.730607 -362.474723
L 78.864001 -362.530919
L 77.068087 -363.336596
L 76.937357 -363.710449
L 76.212721 -365.311747
L 72.21628 -366.019228
L 70.357071 -366.348715
L 70.628587 -367.200532
L 68.509693 -369.81987
L 66.911353 -370.091978
L 67.330163 -373.501612
L 63.814051 -377.774894
L 63.621801 -378.099058
L 64.089117 -379.266165
L 63.434875 -381.613986
L 63.240258 -382.520816
L 64.253565 -384.915368
L 64.659361 -385.873662
L 61.265107 -387.057924
L 58.550532 -390.532036
L 55.623594 -391.768354
L 52.118131 -396.897594
L 51.651406 -396.952607
L 51.389946 -397.913267
L 52.34055 -400.947865
L 52.816148 -402.545022
L 52.822655 -403.664215
L 54.029395 -404.832506
L 53.518305 -408.938382
L 54.193252 -410.375231
L 56.688366 -415.376699
L 57.426607 -416.226741
L 57.426607 -416.279979
L 50.574804 -419.182664
L 49.110744 -419.773612
L 46.384338 -421.169054
L 43.924125 -422.457427
L 43.992743 -422.72362
L 43.993335 -422.830097
L 43.993926 -422.936574
L 44.204514 -424.908176
L 44.140037 -425.281437
L 44.01463 -426.720653
L 43.952519 -427.573653
L 43.223742 -428.375781
L 42.772397 -431.202157
L 42.579555 -432.482248
L 41.452672 -433.712059
L 37.725973 -435.164289
L 39.682786 -439.314531
L 35.896341 -441.939783
L 31.653228 -446.431935
z
" style="stroke: #2c3e50; stroke-width: 2"/>
    </defs>
    <g clip-path="url(#p1259ae9889)">
     <use xlink:href="#m1d2d826a52" x="0" y="620.304" style="fill: #f8f9fa; stroke: #2c3e50; stroke-width: 2"/>
    </g>
   </g>
   <g id="text_1">
    <!-- 중리동 -->
    <g transform="translate(209.357434 298.201334) scale(0.14 -0.14)">
     <defs>
      <path id="NotoSansCJKsc-Bold-d70c" d="M 2925 928
C 3718 928 4122 800 4122 499
C 4122 211 3718 77 2925 77
C 2131 77 1728 211 1728 499
C 1728 800 2131 928 2925 928
z
M 256 2669
L 256 1990
L 2515 1990
L 2515 1562
C 1478 1485 870 1114 870 499
C 870 -179 1645 -570 2925 -570
C 4205 -570 4986 -179 4986 499
C 4986 1107 4378 1478 3360 1555
L 3360 1990
L 5619 1990
L 5619 2669
L 256 2669
z
M 749 5114
L 749 4442
L 2310 4442
C 2163 4045 1581 3654 486 3565
L 781 2893
C 1901 3002 2630 3418 2938 3987
C 3251 3418 3974 3002 5094 2893
L 5389 3565
C 4288 3654 3712 4045 3565 4442
L 5139 4442
L 5139 5114
L 749 5114
z
" transform="scale(0.015625)"/>
      <path id="NotoSansCJKsc-Bold-c7a7" d="M 4339 5370
L 4339 -576
L 5197 -576
L 5197 5370
L 4339 5370
z
M 570 4864
L 570 4179
L 2502 4179
L 2502 3238
L 582 3238
L 582 800
L 1107 800
C 2182 800 3059 838 4019 1011
L 3930 1696
C 3098 1549 2342 1504 1446 1498
L 1446 2566
L 3366 2566
L 3366 4864
L 570 4864
z
" transform="scale(0.015625)"/>
      <path id="NotoSansCJKsc-Bold-c1d4" d="M 2925 1606
C 1645 1606 870 1210 870 512
C 870 -179 1645 -576 2925 -576
C 4205 -576 4986 -179 4986 512
C 4986 1210 4205 1606 2925 1606
z
M 2925 960
C 3718 960 4122 819 4122 512
C 4122 211 3718 70 2925 70
C 2131 70 1728 211 1728 512
C 1728 819 2131 960 2925 960
z
M 915 5107
L 915 3066
L 2522 3066
L 2522 2573
L 269 2573
L 269 1901
L 5626 1901
L 5626 2573
L 3373 2573
L 3373 3066
L 5018 3066
L 5018 3731
L 1760 3731
L 1760 4435
L 4986 4435
L 4986 5107
L 915 5107
z
" transform="scale(0.015625)"/>
     </defs>
     <use xlink:href="#NotoSansCJKsc-Bold-d70c"/>
     <use xlink:href="#NotoSansCJKsc-Bold-c7a7" transform="translate(92 0)"/>
     <use xlink:href="#NotoSansCJKsc-Bold-c1d4" transform="translate(184 0)"/>
    </g>
   </g>
   <g id="text_2">
    <!-- 이천시 중리동 세부 지도 -->
    <g transform="translate(122.217738 31.504) scale(0.16 -0.16)">
     <defs>
      <path id="NotoSansCJKsc-Regular-d56f" d="M 4525 5293
L 4525 -506
L 5056 -506
L 5056 5293
L 4525 5293
z
M 2003 4845
C 1146 4845 531 4058 531 2829
C 531 1594 1146 806 2003 806
C 2854 806 3469 1594 3469 2829
C 3469 4058 2854 4845 2003 4845
z
M 2003 4371
C 2566 4371 2957 3763 2957 2829
C 2957 1888 2566 1280 2003 1280
C 1434 1280 1043 1888 1043 2829
C 1043 3763 1434 4371 2003 4371
z
" transform="scale(0.015625)"/>
      <path id="NotoSansCJKsc-Regular-da97" d="M 1766 5254
L 1766 4518
L 480 4518
L 480 4090
L 1766 4090
L 1766 3910
C 1766 3098 1190 2381 333 2093
L 595 1677
C 1274 1914 1792 2406 2042 3034
C 2298 2451 2816 1997 3475 1779
L 3738 2195
C 2880 2470 2291 3149 2291 3910
L 2291 4090
L 3571 4090
L 3571 4518
L 2298 4518
L 2298 5254
L 1766 5254
z
M 4550 5286
L 4550 3507
L 3373 3507
L 3373 3072
L 4550 3072
L 4550 966
L 5082 966
L 5082 5286
L 4550 5286
z
M 1389 1350
L 1389 -371
L 5242 -371
L 5242 64
L 1914 64
L 1914 1350
L 1389 1350
z
" transform="scale(0.015625)"/>
      <path id="NotoSansCJKsc-Regular-d0d7" d="M 4525 5293
L 4525 -506
L 5056 -506
L 5056 5293
L 4525 5293
z
M 1843 4794
L 1843 3757
C 1843 2656 1152 1549 288 1146
L 614 704
C 1293 1043 1850 1773 2118 2643
C 2387 1818 2944 1139 3597 819
L 3917 1242
C 3066 1632 2374 2701 2374 3757
L 2374 4794
L 1843 4794
z
" transform="scale(0.015625)"/>
      <path id="NotoSans-Regular-3" transform="scale(0.015625)"/>
      <path id="NotoSansCJKsc-Regular-d70c" d="M 2931 1133
C 3834 1133 4378 915 4378 531
C 4378 147 3834 -77 2931 -77
C 2022 -77 1485 147 1485 531
C 1485 915 2022 1133 2931 1133
z
M 320 2586
L 320 2150
L 2669 2150
L 2669 1542
C 1587 1491 947 1139 947 531
C 947 -122 1690 -486 2931 -486
C 4166 -486 4909 -122 4909 531
C 4909 1139 4269 1491 3194 1542
L 3194 2150
L 5549 2150
L 5549 2586
L 320 2586
z
M 800 5024
L 800 4595
L 2592 4595
C 2547 3962 1619 3462 614 3354
L 800 2931
C 1760 3046 2624 3475 2931 4109
C 3251 3475 4115 3046 5069 2931
L 5261 3354
C 4243 3462 3322 3962 3277 4595
L 5075 4595
L 5075 5024
L 800 5024
z
" transform="scale(0.015625)"/>
      <path id="NotoSansCJKsc-Regular-c7a7" d="M 4538 5293
L 4538 -506
L 5062 -506
L 5062 5293
L 4538 5293
z
M 640 4755
L 640 4320
L 2778 4320
L 2778 3117
L 653 3117
L 653 896
L 1133 896
C 2131 896 3002 934 4045 1107
L 3994 1542
C 2982 1382 2138 1338 1190 1338
L 1190 2688
L 3315 2688
L 3315 4755
L 640 4755
z
" transform="scale(0.015625)"/>
      <path id="NotoSansCJKsc-Regular-c1d4" d="M 2931 1594
C 1696 1594 947 1216 947 550
C 947 -115 1696 -493 2931 -493
C 4166 -493 4909 -115 4909 550
C 4909 1216 4166 1594 2931 1594
z
M 2931 1178
C 3834 1178 4378 947 4378 550
C 4378 147 3834 -77 2931 -77
C 2022 -77 1485 147 1485 550
C 1485 947 2022 1178 2931 1178
z
M 979 5024
L 979 3104
L 2675 3104
L 2675 2438
L 320 2438
L 320 2010
L 5555 2010
L 5555 2438
L 3194 2438
L 3194 3104
L 4941 3104
L 4941 3533
L 1504 3533
L 1504 4602
L 4902 4602
L 4902 5024
L 979 5024
z
" transform="scale(0.015625)"/>
      <path id="NotoSansCJKsc-Regular-cf33" d="M 4730 5293
L 4730 -499
L 5242 -499
L 5242 5293
L 4730 5293
z
M 3552 5171
L 3552 3219
L 2598 3219
L 2598 2778
L 3552 2778
L 3552 -205
L 4051 -205
L 4051 5171
L 3552 5171
z
M 1523 4749
L 1523 3642
C 1523 2650 1050 1619 256 1146
L 589 749
C 1158 1094 1574 1754 1786 2515
C 1990 1818 2374 1210 2925 877
L 3226 1286
C 2470 1747 2035 2739 2035 3661
L 2035 4749
L 1523 4749
z
" transform="scale(0.015625)"/>
      <path id="NotoSansCJKsc-Regular-cb7b" d="M 979 5056
L 979 2554
L 4896 2554
L 4896 5056
L 4365 5056
L 4365 4262
L 1504 4262
L 1504 5056
L 979 5056
z
M 1504 3834
L 4365 3834
L 4365 2989
L 1504 2989
L 1504 3834
z
M 314 1862
L 314 1434
L 2662 1434
L 2662 -499
L 3187 -499
L 3187 1434
L 5562 1434
L 5562 1862
L 314 1862
z
" transform="scale(0.015625)"/>
      <path id="NotoSansCJKsc-Regular-d7bb" d="M 4525 5293
L 4525 -499
L 5056 -499
L 5056 5293
L 4525 5293
z
M 506 4698
L 506 4256
L 1850 4256
L 1850 3526
C 1850 2528 1152 1434 320 1037
L 627 614
C 1286 947 1862 1677 2125 2522
C 2394 1728 2963 1069 3635 755
L 3930 1178
C 3078 1549 2387 2547 2387 3526
L 2387 4256
L 3738 4256
L 3738 4698
L 506 4698
z
" transform="scale(0.015625)"/>
      <path id="NotoSansCJKsc-Regular-c1bf" d="M 986 4826
L 986 2157
L 2669 2157
L 2669 672
L 320 672
L 320 230
L 5568 230
L 5568 672
L 3194 672
L 3194 2157
L 4960 2157
L 4960 2586
L 1517 2586
L 1517 4390
L 4902 4390
L 4902 4826
L 986 4826
z
" transform="scale(0.015625)"/>
     </defs>
     <use xlink:href="#NotoSansCJKsc-Regular-d56f"/>
     <use xlink:href="#NotoSansCJKsc-Regular-da97" transform="translate(92 0)"/>
     <use xlink:href="#NotoSansCJKsc-Regular-d0d7" transform="translate(184 0)"/>
     <use xlink:href="#NotoSans-Regular-3" transform="translate(276 0)"/>
     <use xlink:href="#NotoSansCJKsc-Regular-d70c" transform="translate(302 0)"/>
     <use xlink:href="#NotoSansCJKsc-Regular-c7a7" transform="translate(394 0)"/>
     <use xlink:href="#NotoSansCJKsc-Regular-c1d4" transform="translate(486 0)"/>
     <use xlink:href="#NotoSans-Regular-3" transform="translate(578 0)"/>
     <use xlink:href="#NotoSansCJKsc-Regular-cf33" transform="translate(604 0)"/>
     <use xlink:href="#NotoSansCJKsc-Regular-cb7b" transform="translate(696 0)"/>
     <use xlink:href="#NotoSans-Regular-3" transform="translate(788 0)"/>
     <use xlink:href="#NotoSansCJKsc-Regular-d7bb" transform="translate(814 0)"/>
     <use xlink:href="#NotoSansCJKsc-Regular-c1bf" transform="translate(906 0)"/>
    </g>
   </g>
  </g>
 </g>
 <defs>
  <clipPath id="p1259ae9889">
   <rect x="14.4" y="51.504" width="375.315475" height="554.4"/>
  </clipPath>
 </defs>
</svg>
